<svg aria-hidden="true" class="arrow-down" width="18.885" height="28.328" viewBox="0 0 18.885 28.328"><g transform="translate(-20.301 -6.398)"><path d="M30.587,34.726H28.9a8.613,8.613,0,0,1-8.6-8.6V15a8.613,8.613,0,0,1,8.6-8.6h1.687a8.613,8.613,0,0,1,8.6,8.6v11.13A8.613,8.613,0,0,1,30.587,34.726ZM28.9,8.02A6.987,6.987,0,0,0,21.923,15v11.13A6.987,6.987,0,0,0,28.9,33.1h1.687a6.987,6.987,0,0,0,6.976-6.976V15A6.987,6.987,0,0,0,30.587,8.02Z"></path><path d="M44.642,38.582a.784.784,0,0,0-1.136,0L41.43,40.853V32.612a.811.811,0,1,0-1.622,0v8.274L37.73,38.615a.769.769,0,1,0-1.136,1.038l3.44,3.8a.784.784,0,0,0,1.136,0l3.472-3.8a.833.833,0,0,0,0-1.071Z" transform="translate(-10.875 -17.16)"></path></g></svg>