<svg viewBox="0 0 100 100" aria-hidden="true"><path d="M14.605 24.824c0-4.166 1.205-7.91 3.614-11.23 2.474-3.32 5.86-5.925 10.156-7.813L27.008.996C19 2.754 12.652 6.888 7.965 13.398 3.277 19.908.934 26.908.934 34.395c0 4.687 1.139 8.658 3.418 11.914 2.278 3.255 5.5 4.882 9.668 4.882 3.58 0 6.608-1.367 9.082-4.101 2.474-2.735 3.71-5.957 3.71-9.668 0-3.58-1.139-6.576-3.418-8.984-2.278-2.41-5.208-3.614-8.788-3.614zm32.032 0c0-4.166 1.204-7.91 3.613-11.23 2.474-3.32 5.86-5.925 10.156-7.813L59.04.996c-8.008 1.758-14.355 5.892-19.043 12.402-4.687 6.51-7.031 13.51-7.031 20.997 0 4.687 1.14 8.658 3.418 11.914 2.278 3.255 5.501 4.882 9.668 4.882 3.58 0 6.608-1.367 9.082-4.101 2.474-2.735 3.71-5.957 3.71-9.668 0-3.58-1.139-6.576-3.417-8.984-2.279-2.41-5.209-3.614-8.79-3.614z"/></svg>