<svg width="250" height="250" viewBox="0 0 250 250" fill="none" xmlns="http://www.w3.org/2000/svg">
<path d="M136.802 144.063C136.216 145.195 135.552 146.289 134.81 147.422C138.208 146.68 141.45 145.625 144.536 144.219V135.43C143.012 136.328 141.45 137.07 139.771 137.773C138.911 139.922 137.935 142.031 136.802 144.063Z" fill="white"/>
<path d="M19.893 105.273L15.9868 62.5H32.7045L32.1967 54.6875H11.7289C10.6352 54.6875 9.581 55.1562 8.83881 55.9766C8.09662 56.7578 7.74506 57.8516 7.82318 58.9453L12.1196 105.977C13.8383 125.156 26.7285 140.547 44.0717 146.133C42.0014 142.773 40.3608 139.219 39.1498 135.43C28.5253 129.375 21.1035 118.359 19.893 105.273Z" fill="white"/>
<path d="M105.476 210.938L97.7026 163.359C108.249 161.523 117.584 156.094 124.342 148.359C126.49 145.898 128.404 143.203 129.967 140.273C133.131 134.57 135.084 128.086 135.513 121.172L135.865 115.625C135.748 115.195 135.591 114.805 135.474 114.531C134.693 114.18 132.896 113.672 131.686 113.359C130.826 113.125 129.889 112.891 128.912 112.578C126.256 111.758 123.366 110.547 121.1 108.398C120.24 107.578 119.459 106.602 118.795 105.469C115.826 100.312 117.311 94.6484 118.404 90.5078C118.717 89.2578 119.225 87.4219 119.264 86.5625C118.795 85.8594 117.545 84.6094 116.686 83.75C113.6 80.6641 109.381 76.4062 109.381 70.3125C109.381 64.2188 113.6 59.9609 116.686 56.875C117.545 56.0156 118.795 54.7656 119.264 54.0625C119.225 53.2031 118.717 51.3672 118.404 50.1172C117.584 46.9922 116.529 43.0469 117.35 39.0625H39.0723L44.189 121.172C45.5562 142.617 61.4927 159.805 82 163.359L74.2271 210.938H50.7905L46.8843 242.188H132.818L128.912 210.938H105.475H105.476Z" fill="white"/>
<path d="M195.901 130.742C195.198 131.25 193.987 132.461 193.127 133.32C190.042 136.406 185.784 140.625 179.69 140.625C173.597 140.625 169.339 136.406 166.253 133.32C165.433 132.461 164.183 131.25 163.48 130.742C162.503 130.82 160.902 131.211 159.496 131.602C157.309 132.148 154.926 132.812 152.348 132.93V187.5L179.69 164.062L207.033 187.5V132.93C204.494 132.812 202.033 132.148 199.885 131.602C198.439 131.211 196.838 130.781 195.901 130.742Z" fill="white"/>
<path d="M232.54 84.4922C233.829 79.6484 242.188 75.5469 242.188 70.3125C242.188 65.0781 233.829 60.9766 232.54 56.1328C231.172 51.1328 236.367 43.4375 233.829 39.0625C231.25 34.6094 221.954 35.2344 218.361 31.6406C214.767 28.0469 215.392 18.75 210.939 16.1719C206.564 13.6328 198.869 18.8281 193.869 17.4609C189.026 16.1719 184.924 7.8125 179.69 7.8125C174.456 7.8125 170.354 16.1719 165.511 17.4609C160.511 18.8281 152.816 13.6328 148.441 16.1719C143.988 18.75 144.613 28.0469 141.019 31.6406C137.426 35.2344 128.129 34.6094 125.551 39.0625C123.012 43.4375 128.208 51.1328 126.84 56.1328C125.551 60.9766 117.192 65.0781 117.192 70.3125C117.192 75.5469 125.551 79.6484 126.84 84.4922C128.208 89.4922 123.013 97.1875 125.551 101.562C128.129 106.016 137.426 105.391 141.019 108.984C144.613 112.578 143.988 121.875 148.441 124.453C152.815 126.992 160.511 121.797 165.511 123.164C170.354 124.453 174.456 132.812 179.69 132.812C184.924 132.812 189.025 124.453 193.869 123.164C198.869 121.797 206.564 126.992 210.939 124.453C215.392 121.875 214.767 112.578 218.361 108.984C221.954 105.391 231.25 106.016 233.829 101.562C236.368 97.1875 231.172 89.4922 232.54 84.4922ZM179.69 109.375C158.168 109.375 140.629 91.8359 140.629 70.3125C140.629 48.7891 158.167 31.25 179.69 31.25C201.213 31.25 218.751 48.7891 218.751 70.3125C218.751 91.8359 201.213 109.375 179.69 109.375Z" fill="white"/>
<path d="M179.69 101.561C196.948 101.561 210.938 87.5706 210.938 70.3125C210.938 53.0544 196.948 39.064 179.69 39.064C162.432 39.064 148.441 53.0544 148.441 70.3125C148.441 87.5706 162.432 101.561 179.69 101.561Z" fill="white"/>
</svg>
