<svg width="318" height="242" viewBox="0 0 318 242" fill="none" xmlns="http://www.w3.org/2000/svg">
<g clip-path="url(#clip0_2027_263)">
<path d="M244.9 170.6H270.9L257.9 157.3L244.9 170.6Z" fill="white"/>
<path d="M274.4 166.8V140.4L261.5 153.6L274.4 166.8Z" fill="white"/>
<path d="M270.9 136.7H244.9L257.9 149.9L270.9 136.7Z" fill="white"/>
<path d="M241.3 140.4V166.8L254.2 153.6L241.3 140.4Z" fill="white"/>
<path d="M174 35.3999H143.6V56.5999H174V35.3999Z" fill="white"/>
<path d="M78.1002 152.9H64.7002V167.3H78.1002V152.9Z" fill="white"/>
<path d="M78.1002 133.3H64.7002V147.7H78.1002V133.3Z" fill="white"/>
<path d="M59.4996 133.3H46.0996V147.7H59.4996V133.3Z" fill="white"/>
<path d="M161.4 199.1V213V226.7L184.6 178.1L161.4 129.5V198.8V199.1Z" fill="white"/>
<path d="M59.4996 152.9H46.0996V167.3H59.4996V152.9Z" fill="white"/>
<path d="M213.6 227V129.8L190.4 178.4L213.6 227Z" fill="white"/>
<path d="M162.9 120.9L187.5 172.3L212 120.9H162.9Z" fill="white"/>
<path d="M156.2 120.9H104V196.5H156.2V120.9Z" fill="white"/>
<path d="M156.2 201.7H104V210.6H156.2V201.7Z" fill="white"/>
<path d="M156.1 215.8H104V224.7H156.1V215.8Z" fill="white"/>
<path d="M315 235.9H296.8V100L305.1 102.8C306.5 103.3 307.9 102.5 308.4 101.2C308.9 99.8 308.1 98.4 306.8 97.9L295.1 94L207.6 64.5V30.4L215.6 34.4C216 34.6 216.4 34.7 216.8 34.7C217.8 34.7 218.7 34.2 219.1 33.3C219.7 32 219.2 30.5 217.9 29.8L159.1 0.3C158.4 -0.1 157.5 -0.1 156.8 0.3L99.5 29.2C98.2 29.8 97.7 31.4 98.3 32.7C98.9 34 100.5 34.5 101.8 33.9L111 29.3V63.7L10.8 97.1C9.4 97.6 8.7 99 9.2 100.4C9.6 101.5 10.6 102.2 11.7 102.2C12.8 102.2 12.3 102.2 12.5 102.1L20.4 99.5V236H2.6C1.2 236 0 237.2 0 238.6C0 240 1.2 241.2 2.6 241.2H216.2H315C316.4 241.2 317.6 240 317.6 238.6C317.6 237.2 316.4 236 315 236V235.9ZM279.6 173.2C279.6 173.5 279.6 173.9 279.4 174.1C279.3 174.4 279.1 174.7 278.8 174.9C278.6 175.1 278.3 175.3 278 175.4C277.7 175.5 277.4 175.6 277.1 175.6H238.8C238.5 175.6 238.2 175.6 237.9 175.4C237.6 175.3 237.3 175.1 237.1 174.9C236.9 174.7 236.7 174.4 236.5 174.1C236.4 173.8 236.3 173.5 236.3 173.2V134.1C236.3 133.8 236.3 133.4 236.5 133.2C236.6 132.9 236.8 132.6 237.1 132.4C237.3 132.2 237.6 132 237.9 131.9C238.2 131.8 238.5 131.7 238.8 131.7H277.1C277.4 131.7 277.7 131.7 278 131.9C278.3 132 278.6 132.2 278.8 132.4C279 132.6 279.2 132.9 279.4 133.2C279.5 133.5 279.6 133.8 279.6 134.1V173.2ZM138.4 32.8C138.4 31.4 139.6 30.2 141 30.2H176.6C178 30.2 179.2 31.4 179.2 32.8V59.2C179.2 60.6 178 61.8 176.6 61.8H141C139.6 61.8 138.4 60.6 138.4 59.2V32.8ZM83.3 169.8C83.3 171.2 82.1 172.4 80.7 172.4H43.4C42 172.4 40.8 171.2 40.8 169.8V130.7C40.8 129.3 42 128.1 43.4 128.1H80.7C82.1 128.1 83.3 129.3 83.3 130.7V169.8ZM212 235.9L187.4 184.4L162.8 235.9H156.1V230H104V235.9H98.8V118.3C98.8 116.9 100 115.7 101.4 115.7H216.1H216.3C216.3 115.7 216.5 115.7 216.6 115.7C216.6 115.7 216.7 115.7 216.8 115.7C216.8 115.7 217 115.7 217.1 115.8C217.1 115.8 217.1 115.8 217.2 115.8C217.2 115.8 217.4 115.8 217.4 116C217.4 116 217.5 116.1 217.6 116.2C217.6 116.2 217.7 116.3 217.8 116.4C217.8 116.4 217.9 116.5 218 116.6C218 116.6 218.1 116.7 218.1 116.8C218.1 116.8 218.1 116.9 218.2 117C218.2 117 218.2 117.2 218.3 117.2V117.4V117.6C218.3 117.6 218.3 117.8 218.3 117.9C218.3 117.9 218.3 118 218.3 118.1V235.7H211.6L212 235.9Z" fill="white"/>
</g>
<defs>
<clipPath id="clip0_2027_263">
<rect width="317.6" height="241.1" fill="white"/>
</clipPath>
</defs>
</svg>
