<svg width="319" height="262" viewBox="0 0 319 262" fill="none" xmlns="http://www.w3.org/2000/svg">
<g clip-path="url(#clip0_2027_280)">
<path d="M251.5 158C231.1 158 214.5 174.6 214.5 195C214.5 215.4 231.1 232 251.5 232C271.9 232 288.5 215.4 288.5 195C288.5 174.6 271.9 158 251.5 158ZM251.5 208.4C244.1 208.4 238.1 202.4 238.1 195C238.1 187.6 244.1 181.6 251.5 181.6C258.9 181.6 264.9 187.6 264.9 195C264.9 202.4 258.9 208.4 251.5 208.4Z" fill="white"/>
<path d="M253.263 202.309C257.348 201.343 259.876 197.249 258.911 193.164C257.945 189.079 253.851 186.551 249.766 187.516C245.681 188.482 243.153 192.576 244.118 196.661C245.084 200.746 249.178 203.274 253.263 202.309Z" fill="white"/>
<path d="M304.2 160.6C302.7 160.6 301.3 159.8 300.3 158.5C298 155.3 295.3 152.4 292.4 149.7C291.3 148.7 290.6 147.2 290.7 145.6C290.7 144.2 291.4 142.8 292.5 141.9L280.5 134.4C280.1 135.8 279.2 136.9 278 137.6C276.6 138.3 275.1 138.4 273.6 137.9C269.5 136.3 265.3 135.1 260.9 134.4C259.4 134.2 258 133.2 257.2 131.9C256.5 130.7 256.3 129.3 256.6 128H242.5C243 129.4 242.9 131 242.2 132.3C241.5 133.6 240.2 134.6 238.7 134.9C233.4 136 228.3 137.8 223.5 140.2C222.2 140.9 220.6 140.9 219.3 140.4C217.9 139.9 216.8 138.7 216.3 137.3L216 136.5L205.3 145.7C206.4 146.5 207.2 147.7 207.4 149.1C207.7 150.7 207.2 152.3 206.1 153.4C202.5 157.3 199.5 161.6 197 166.2C196.3 167.6 195 168.5 193.5 168.8C192.1 169.1 190.7 168.8 189.5 168L185.3 181.4C186.7 181.4 188.1 182 189.1 183.1C190.2 184.2 190.7 185.8 190.5 187.3C190.2 189.8 190 192.3 190 194.7C190 197.1 190 197.6 190.2 199.1C190.3 200.6 189.7 202.1 188.6 203.2C187.6 204.2 186.2 204.7 184.8 204.7L188.3 218.3C189.5 217.6 191 217.4 192.4 217.7C193.9 218.1 195.1 219.1 195.8 220.5C197.5 224.1 199.5 227.5 201.8 230.7C202.7 231.9 203 233.5 202.6 235C202.3 236.4 201.4 237.6 200.1 238.3L210.3 248C210.9 246.7 212.1 245.8 213.4 245.4C214.9 244.9 216.5 245.2 217.7 246C221 248.2 224.5 250 228.2 251.5C229.6 252.1 230.7 253.2 231.2 254.7C231.6 256.1 231.5 257.5 230.8 258.8L244.6 261.6C244.5 260.2 244.9 258.8 245.9 257.7C246.9 256.5 248.4 255.9 249.9 255.9C253.8 255.9 257.8 255.7 261.6 255C263.1 254.7 264.7 255.2 265.8 256.1C266.9 257 267.6 258.3 267.6 259.8L280.8 254.9C279.9 253.8 279.6 252.3 279.8 250.9C280 249.4 280.9 248.1 282.3 247.3C285.7 245.3 288.9 242.9 291.8 240.3C292.9 239.3 294.5 238.8 296 239C297.4 239.2 298.7 240 299.5 241.1L308.1 230C306.8 229.5 305.7 228.5 305.2 227.1C304.6 225.7 304.7 224.1 305.4 222.7C307.2 219.2 308.7 215.5 309.8 211.7C310.2 210.2 311.3 209 312.7 208.4C314 207.8 315.5 207.8 316.8 208.4L318.2 194.4C316.8 194.7 315.4 194.4 314.2 193.5C312.9 192.6 312.2 191.2 312 189.7C311.7 185.8 311 181.9 309.9 178.1C309.5 176.6 309.7 175 310.6 173.8C311.4 172.6 312.7 171.8 314.1 171.6L307.9 158.9C306.9 159.9 305.5 160.4 304 160.3L304.2 160.6ZM251.5 237.8C227.9 237.8 208.8 218.6 208.8 195.1C208.8 171.6 228 152.4 251.5 152.4C275 152.4 294.2 171.6 294.2 195.1C294.2 218.6 275 237.8 251.5 237.8Z" fill="white"/>
<path d="M242.6 28.3999L242.7 108.7H273.2L268.1 28.3999H242.6Z" fill="white"/>
<path d="M107.8 80.3H98.0998C97.0998 80.3 96.2998 81.1 96.2998 82.1V113.3C96.2998 113.8 96.4998 114.3 96.8998 114.6C97.1998 114.9 97.5998 115.1 98.0998 115.1C98.5998 115.1 98.1998 115.1 98.2998 115.1L108 114.2C108.9 114.2 109.6 113.4 109.6 112.4V82C109.6 81 108.8 80.2 107.8 80.2V80.3Z" fill="white"/>
<path d="M99.2996 76.8C99.2996 77.8 100.1 78.6 101.1 78.6H104.5C105.5 78.6 106.3 77.8 106.3 76.8V26.3C106.3 18.8 104.3 11.4 100.4 4.9L97.9996 0.9C97.6996 0.4 97.1996 0.1 96.5996 0C95.9996 0 95.4996 0.2 95.0996 0.6L92.0996 4.1C91.5996 4.7 91.4996 5.6 91.9996 6.2C96.7996 13.4 99.3996 21.8 99.3996 30.5V76.8H99.2996Z" fill="white"/>
<path d="M239.9 23.0999H270.6H281.5V14.8999H161.7L152 23.0999H158.3H239.9Z" fill="white"/>
<path d="M96.9004 197.6C98.3004 201.4 99.3004 205.5 99.9004 209.7H175.3C174.5 205.7 174.1 201.7 174 197.6H96.9004Z" fill="white"/>
<path d="M237.3 28.3999H160.7L151.8 108.7H237.4L237.3 28.3999Z" fill="white"/>
<path d="M19.7997 166.1C27.2997 162.5 35.5997 160.6 43.9997 160.6C65.8997 160.6 85.3997 173.6 94.6997 192.4H174C175.6 151.4 209.4 118.6 250.8 118.6C292.2 118.6 266.6 119.9 274.1 122.2L273.6 114H149.1L110.7 117.5L95.6997 118.9L27.0997 125.1C23.3997 125.3 19.9997 127 17.6997 129.9C15.3997 132.7 14.3997 136.4 15.0997 140L19.8997 166.2L19.7997 166.1ZM38.9997 129.1H57.6997C59.1997 129.1 60.2997 130.3 60.2997 131.7C60.2997 133.1 59.0997 134.3 57.6997 134.3H38.9997C37.4997 134.3 36.3997 133.1 36.3997 131.7C36.3997 130.3 37.5997 129.1 38.9997 129.1ZM38.9997 140.9H57.6997C59.1997 140.9 60.2997 142.1 60.2997 143.5C60.2997 144.9 59.0997 146.1 57.6997 146.1H38.9997C37.4997 146.1 36.3997 144.9 36.3997 143.5C36.3997 142.1 37.5997 140.9 38.9997 140.9Z" fill="white"/>
<path d="M44.6004 220.3C46.9004 220.3 48.8004 218.4 48.8004 216.1C48.8004 213.8 46.9004 211.9 44.6004 211.9C42.3004 211.9 40.4004 213.8 40.4004 216.1C40.4004 218.4 42.3004 220.3 44.6004 220.3Z" fill="white"/>
<path d="M44.6 241.2C58.4 241.2 69.7 230 69.7 216.1C69.7 202.2 58.5 191 44.6 191C30.7 191 19.5 202.2 19.5 216.1C19.5 230 30.7 241.2 44.6 241.2ZM44.6 206.3C50 206.3 54.5 210.7 54.5 216.2C54.5 221.7 50.1 226.1 44.6 226.1C39.1 226.1 34.7 221.7 34.7 216.2C34.7 210.7 39.1 206.3 44.6 206.3Z" fill="white"/>
<path d="M7.19961 233.4C8.29961 235.8 9.59961 238 11.1996 240.1C11.9996 241.2 12.2996 242.6 11.8996 243.9C11.6996 244.7 11.2996 245.4 10.6996 246L16.1996 251.2C16.6996 250.6 17.3996 250.2 18.1996 249.9C19.4996 249.5 20.8996 249.7 21.9996 250.4C24.1996 251.8 26.4996 253 28.8996 254C30.0996 254.5 31.0996 255.5 31.4996 256.8C31.7996 257.6 31.7996 258.4 31.4996 259.2L38.8996 260.7C38.9996 259.9 39.3996 259.2 39.8996 258.5C40.7996 257.5 41.9996 256.9 43.3996 257C45.9996 257 48.6996 256.9 51.2996 256.4C52.5996 256.2 53.8996 256.5 54.8996 257.4C55.4996 257.9 55.9996 258.6 56.2996 259.4L63.3996 256.8C63.0996 256.1 62.9996 255.2 63.0996 254.4C63.2996 253.1 64.0996 251.9 65.1996 251.2C67.3996 249.9 69.5996 248.3 71.4996 246.6C72.4996 245.7 73.7996 245.3 75.1996 245.5C75.9996 245.6 76.7996 246 77.3996 246.5L81.9996 240.5C81.3996 240 80.7996 239.4 80.4996 238.6C79.9996 237.4 79.9996 236 80.6996 234.8C81.8996 232.5 82.8996 230 83.5996 227.5C83.9996 226.2 84.8996 225.2 86.0996 224.6C86.7996 224.3 87.6996 224.2 88.4996 224.3L89.2996 216.8C88.4996 216.8 87.6996 216.5 86.9996 216C85.8996 215.2 85.1996 214 85.0996 212.7C84.8996 210.1 84.3996 207.5 83.6996 205C83.2996 203.7 83.5996 202.3 84.2996 201.2C84.7996 200.5 85.3996 200 86.0996 199.7L82.7996 192.9C82.0996 193.3 81.2996 193.4 80.4996 193.4C79.1996 193.4 77.8996 192.7 77.0996 191.6C75.4996 189.5 73.7996 187.6 71.7996 185.8C70.7996 184.9 70.2996 183.6 70.2996 182.3C70.2996 181.5 70.5996 180.7 70.9996 180L64.5996 176C64.1996 176.7 63.5996 177.3 62.8996 177.7C61.6996 178.3 60.3996 178.4 59.1996 177.9C56.4996 176.8 53.5996 176 50.6996 175.6C49.3996 175.4 48.1996 174.6 47.5996 173.5C47.1996 172.8 46.9996 172.1 46.9996 171.3H39.4996C39.4996 172.1 39.3996 173 38.9996 173.8C38.3996 175 37.2996 175.8 35.9996 176C32.4996 176.7 29.0996 177.9 25.8996 179.5C24.6996 180.1 23.3996 180.1 22.1996 179.7C21.1996 179.3 20.3996 178.6 19.8996 177.7L14.2996 182.5C14.7996 183.1 15.0996 183.8 15.2996 184.6C15.4996 186 15.0996 187.3 14.1996 188.3C11.7996 190.9 9.79961 193.8 8.09961 196.9C7.49961 198.1 6.39961 198.9 5.09961 199.2C4.29961 199.4 3.49961 199.3 2.69961 199.1L0.399609 206.3C1.19961 206.5 1.89961 206.9 2.49961 207.6C3.39961 208.6 3.79961 209.9 3.69961 211.2C3.49961 212.9 3.39961 214.5 3.39961 216.2C3.39961 217.9 3.39961 218.2 3.49961 219.1C3.49961 220.4 3.09961 221.7 2.19961 222.6C1.59961 223.2 0.899609 223.6 0.0996094 223.8L1.99961 231.1C2.79961 230.9 3.59961 230.9 4.39961 231.1C5.69961 231.4 6.79961 232.3 7.29961 233.6L7.19961 233.4ZM44.5996 185.4C61.5996 185.4 75.3996 199.2 75.3996 216.2C75.3996 233.2 61.5996 247 44.5996 247C27.5996 247 13.7996 233.2 13.7996 216.2C13.7996 199.2 27.5996 185.4 44.5996 185.4Z" fill="white"/>
<path d="M274 122.1C286 126 297 133.1 305.6 142.8C306.6 143.9 308.2 144 309.3 143C310.4 142 310.5 140.4 309.5 139.3C301.5 130.3 291.6 123.4 280.7 119L273.3 116.4L274 122.2V122.1Z" fill="white"/>
</g>
<defs>
<clipPath id="clip0_2027_280">
<rect width="318.4" height="261.8" fill="white"/>
</clipPath>
</defs>
</svg>
