<svg width="301" height="231" viewBox="0 0 301 231" fill="none" xmlns="http://www.w3.org/2000/svg">
<g clip-path="url(#clip0_2027_159)">
<path d="M94.2004 35.7C104 35.7 112 27.7 112 17.9C112 8.1 104 0 94.2004 0C84.4004 0 76.4004 8 76.4004 17.8C76.4004 27.6 84.4004 35.6 94.2004 35.6V35.7Z" fill="white"/>
<path d="M189.5 135.7C189.5 135.9 189.5 136 189.5 136.2C189 139.1 186.4 141.3 183.4 141.3C180.4 141.3 177.8 139.1 177.3 136.3V81.3C177.3 80 176.2 78.9 174.9 78.9C173.6 78.9 172.5 80 172.5 81.3V222.2C172.5 225 171.1 226.8 170 227.8C168 229.6 165.1 230.4 162.2 230C156 229.2 154.3 223.4 154 222.2V139.2C154 137.9 152.9 136.8 151.6 136.8C150.3 136.8 149.2 137.9 149.2 139.2V222.3C148.9 223.6 147.4 229.9 140.5 230C135.1 230 131.4 226.1 131.4 220.7V81.3C131.4 80 130.4 78.9 129.1 78.9C127.8 78.9 126.7 80 126.7 81.3V134.5V136.8C126.4 138.9 125 140.7 123.2 141.6C122.3 142.1 121.2 142.4 120.1 142.4C116.4 142.4 113.4 139.4 113.4 135.7C113.4 132 113.4 135.1 113.4 134.8L112.9 76.7C112.8 64.7 123.1 54.8 136 54.5H136.5L165.4 54.6H165.7C171.7 54.6 189 58.3 189.4 74.6L189.8 134.2V135.8L189.5 135.7Z" fill="white"/>
<path d="M81.2996 75L81.6996 136.3C81.6996 139.4 80.3996 142.3 78.0996 144.5C76.9996 145.5 75.7996 146.3 74.4996 146.8V208.8C74.4996 214.3 78.1996 218.1 83.5996 218.1C90.3996 218.1 91.9996 211.6 92.1996 210.4V127.3C92.1996 126 93.2996 124.9 94.5996 124.9C95.8996 124.9 96.9996 126 96.9996 127.3V210.4C97.2996 211.5 98.9996 217.4 105.2 218.2C108.2 218.6 111 217.8 113 216C114.1 215 115.5 213.2 115.5 210.4V145.6C111.3 143.8 108.4 139.9 108.3 135.3L107.8 76.5C107.7 64.5 116 54.2 127.6 50.7C121.9 44.4 112.6 42.7 108.5 42.7H108.2L79.2996 42.6H78.7996C71.3996 42.8 64.7996 46.2 60.5996 51.3C70.2996 53.8 80.7996 61 81.1996 74.9L81.2996 75Z" fill="white"/>
<path d="M262.3 47.2999C272.1 47.2999 280.1 39.3 280.1 29.5C280.1 19.7 272.1 11.7 262.3 11.7C252.5 11.7 244.5 19.7 244.5 29.5C244.5 39.3 252.5 47.2999 262.3 47.2999Z" fill="white"/>
<path d="M194 74.3L194.4 135.6C194.4 138.7 193.1 141.6 190.8 143.8C189.6 145 188.1 145.8 186.5 146.4V208.9C186.5 214.4 190.2 218.2 195.6 218.2C202.4 218.2 204 211.8 204.3 210.5V127.4C204.3 126.1 205.4 125 206.7 125C208 125 209.1 126.1 209.1 127.4V210.5C209.4 211.6 211.1 217.5 217.3 218.3C220.3 218.7 223.1 217.9 225.1 216.1C226.2 215.1 227.6 213.3 227.6 210.5V146.1C223 144.5 219.6 140.3 219.6 135.4L219.1 76.5999C219 64.3999 227.7 53.9999 239.5 50.5999C233.8 44.4999 224.6 42.7999 220.6 42.7999H220.3L191.4 42.7H190.9C183.8 42.9 177.5 46 173.3 50.7C183 53.2 193.6 60.4 194 74.4V74.3Z" fill="white"/>
<path d="M206.2 35.7C216 35.7 224 27.7 224 17.9C224 8.1 216 0 206.2 0C196.4 0 188.4 8 188.4 17.8C188.4 27.6 196.4 35.6 206.2 35.6V35.7Z" fill="white"/>
<path d="M151.1 47.2999C160.9 47.2999 168.9 39.3 168.9 29.5C168.9 19.7 160.9 11.7 151.1 11.7C141.3 11.7 133.3 19.7 133.3 29.5C133.3 39.3 141.3 47.2999 151.1 47.2999Z" fill="white"/>
<path d="M38.3996 48C48.1996 48 56.1996 40 56.1996 30.2C56.1996 20.4 48.1996 12.4 38.3996 12.4C28.5996 12.4 20.5996 20.4 20.5996 30.2C20.5996 40 28.5996 48 38.3996 48Z" fill="white"/>
<path d="M76.7998 136.4C76.1998 139.2 73.6997 141.3 70.6997 141.3C67.6997 141.3 64.9997 139 64.5997 136V81.9C64.5997 80.6 63.4997 79.5 62.1997 79.5C60.8997 79.5 59.7997 80.6 59.7997 81.9V222.8C59.7997 225.6 58.3997 227.4 57.2997 228.4C55.2997 230.2 52.4997 231 49.4997 230.6C43.2997 229.8 41.5997 224 41.2997 222.8V139.8C41.2997 138.5 40.1997 137.4 38.8997 137.4C37.5997 137.4 36.4997 138.5 36.4997 139.8V222.9C36.1997 224.2 34.5997 230.6 27.7997 230.6C22.3997 230.6 18.6997 226.7 18.6997 221.3V82C18.6997 80.7 17.6997 79.6 16.3997 79.6C15.0997 79.6 13.9997 80.7 13.9997 82V134.9V136.3C13.6997 139.7 10.7997 142.3 7.39975 142.3C3.99975 142.3 0.699745 139.3 0.699745 135.6L-0.00025454 77.2C-0.100255 65.2 10.1997 55.3 23.0997 55H23.5997L52.4997 55.1H52.7997C58.7997 55.1 76.0997 58.8 76.4997 75.1L76.8997 133.7V136.4H76.7998Z" fill="white"/>
<path d="M77.0004 135.1C77.0004 135.5 77.0004 136 76.9004 136.4V133.7C76.9004 134.1 77.0004 134.6 77.0004 135.1Z" fill="white"/>
<path d="M126.6 135.6C126.6 136 126.6 136.4 126.5 136.7V134.4C126.5 134.8 126.6 135.1 126.6 135.5V135.6Z" fill="white"/>
<path d="M300.7 135C300.7 138.5 297.9 141.3 294.5 141.3C291.1 141.3 289.1 139.3 288.5 136.5V81.3C288.5 80 287.4 78.9 286.1 78.9C284.8 78.9 283.7 80 283.7 81.3V222.2C283.7 225 282.3 226.8 281.2 227.8C279.2 229.6 276.3 230.4 273.4 230C267.2 229.2 265.5 223.4 265.2 222.2V139.2C265.2 137.9 264.1 136.8 262.8 136.8C261.5 136.8 260.4 137.9 260.4 139.2V222.3C260.2 223.6 258.6 230 251.8 230C246.4 230 242.7 226.1 242.7 220.7V81.3C242.7 80 241.7 78.9 240.4 78.9C239.1 78.9 238 80 238 81.3V135V136.4C237.8 138.7 236.3 140.7 234.3 141.7C233.4 142.2 232.4 142.4 231.3 142.4C227.6 142.4 224.8 139.4 224.8 135.7C224.8 132 224.2 76.6 224.2 76.6C224.1 64.6 234.5 54.7 247.3 54.4H247.8L276.7 54.5H277C283 54.5 300.3 58.2 300.7 74.5L301.1 135.1L300.7 135Z" fill="white"/>
</g>
<defs>
<clipPath id="clip0_2027_159">
<rect width="300.7" height="230.7" fill="white"/>
</clipPath>
</defs>
</svg>
