<svg width="273" height="263" viewBox="0 0 273 263" fill="none" xmlns="http://www.w3.org/2000/svg">
<g clip-path="url(#clip0_2027_210)">
<path d="M166.9 182.7C172.2 184.9 176.2 189.4 178.4 195.3C179 196.9 179.4 198.6 179.6 200.2L182 200C187.1 199.3 189.1 198.9 192.7 196.2L233.8 166.2L205.6 146.5C199.2 142 186.1 134.7 168.6 133.6C168.4 136.9 168.4 140 168.6 142.9C168.9 145.9 169.1 148.2 169.2 149.8C171.3 149.8 173.3 150 175.3 150.4C178 150.8 180.4 151.4 182.4 152.2C184.6 153 186.4 154.1 187.7 155.2C188.8 156.2 188.9 157.8 187.9 158.9C187.4 159.5 186.7 159.8 186 159.8C185.3 159.8 184.8 159.6 184.3 159.1C183.7 158.6 182.7 157.8 180.6 157.1C178.9 156.4 176.8 155.9 174.5 155.5C169.6 154.7 164 154.7 159.1 155.5C156.8 155.9 154.7 156.4 153 157.1C151 157.9 149.9 158.6 149.3 159.1C148.2 160.1 146.6 160 145.6 158.9C144.6 157.8 144.7 156.2 145.8 155.2C147.1 154 148.9 153 151.1 152.2C153.2 151.4 155.6 150.8 158.2 150.4C160 150.1 162 149.9 164 149.9C163.9 148.6 163.7 146.8 163.5 144.5V144.3C163.2 141.4 162.7 137.7 162.1 133.6C152 133.8 140.7 136.2 128.4 142.2L97 159.2C98.7 159.6 100.3 160.2 101.9 160.8L166.5 182.7H166.9Z" fill="white"/>
<path d="M2.19963 225.5C2.99963 233.4 8.79963 239.9 16.5996 241.7L102.7 261C114.3 263.6 126.3 262.8 137.4 258.6L197.4 239.8C200.6 238.6 203.8 236.9 206.7 234.7L267.7 186.7C270.7 183.8 272.4 180.1 272.4 176.1C272.4 171.9 270.7 167.7 267.6 164.6C261.9 158.8 254.3 157.9 248.3 162.3L195.9 200.5C191.3 203.9 188.2 204.5 182.8 205.2C182.8 205.2 182.7 205.2 182.6 205.2L179.9 205.4C179.7 207.4 179.3 209.4 178.6 211.1C175.2 219.3 167.1 224.4 158.5 224.4C149.9 224.4 154.9 224.2 153.2 223.7L95.4996 205.2C94.0996 204.8 93.3996 203.3 93.7996 201.9C94.1996 200.5 95.6996 199.8 97.0996 200.2L154.7 218.7C162.5 220.7 170.8 216.6 174 209.1C175.4 205.7 175.3 201.2 173.8 197C172.1 192.5 169.1 189.1 165.2 187.4L100.6 165.5C94.5996 163.1 88.1996 162.3 81.8996 162.9L34.4996 167.7C23.4996 168.8 14.3996 172.9 8.29963 179.4C1.99963 186.1 -0.70037 195.1 0.29963 205.5L2.29963 225.4L2.19963 225.5Z" fill="white"/>
<path d="M160.7 47.2001C151.9 22.3001 123.5 -0.59994 84.7998 5.98794e-05C116.3 15.5001 140.5 44.6001 155.4 84.7001C164 75.5001 166.1 62.0001 160.8 47.2001H160.7Z" fill="white"/>
<path d="M81.8002 4.3999C86.7002 13.4999 87.7002 24.2999 88.7002 35.5999C89.8002 47.7999 91.0002 60.4999 97.3002 71.8999C103.2 82.5999 113 90.4999 124.2 93.3999C133.1 95.6999 141.8 94.5999 148.7 90.1999C149.5 89.6999 150.2 89.1999 150.9 88.6999C139.6 57.3999 119 22.5999 81.7002 4.4999L81.8002 4.3999Z" fill="white"/>
<path d="M181.4 86.8999C183.8 83.4999 186.4 80.1999 189.3 77.0999C200.9 64.4999 220.5 49.7999 249.6 47.9999C240 43.0999 230.2 40.8999 221.1 40.8999C207.2 40.8999 194.8 45.8999 186.5 53.5999C176.5 62.9999 174 74.5999 179.9 84.5999C180.4 85.3999 180.9 86.0999 181.5 86.8999H181.4Z" fill="white"/>
<path d="M193.1 80.5999C190.2 83.7999 187.5 87.1 185.2 90.5C187.8 92.4 190.8 93.7999 194.3 94.5999C202.4 96.4999 211.2 94.7 218.5 89.8C226.3 84.6 231.3 76.8 236.1 69.3C240 63.3 243.8 57.5 248.7 53.2C221.9 55.3 203.9 68.8 193.1 80.5V80.5999Z" fill="white"/>
<path d="M169.5 128.7C171.1 118.3 175.1 106.4 182.3 94.9001L178.4 91.4001C172.4 100.9 168 111.2 165.6 121.3C163.7 112 161.1 101.3 157.3 90.1001L152.8 93.6001C157.1 106.5 159.9 118.6 161.6 128.4L169.5 128.6V128.7Z" fill="white"/>
</g>
<defs>
<clipPath id="clip0_2027_210">
<rect width="272.5" height="262.5" fill="white"/>
</clipPath>
</defs>
</svg>
